<?xml version="1.0" encoding="UTF-8" standalone="no"?>
<!-- Created with Inkscape (http://www.inkscape.org/) -->

<svg
   width="643.67126mm"
   height="730.80737mm"
   viewBox="0 0 643.67126 730.80737"
   version="1.1"
   id="svg5"
   xml:space="preserve"
   inkscape:export-filename="bitmap.svg"
   inkscape:export-xdpi="96"
   inkscape:export-ydpi="96"
   inkscape:version="1.2.2 (b0a8486541, 2022-12-01)"
   sodipodi:docname="drawing.svg"
   xmlns:inkscape="http://www.inkscape.org/namespaces/inkscape"
   xmlns:sodipodi="http://sodipodi.sourceforge.net/DTD/sodipodi-0.dtd"
   xmlns="http://www.w3.org/2000/svg"
   xmlns:svg="http://www.w3.org/2000/svg"><sodipodi:namedview
     id="namedview7"
     pagecolor="#505050"
     bordercolor="#eeeeee"
     borderopacity="1"
     inkscape:showpageshadow="0"
     inkscape:pageopacity="0"
     inkscape:pagecheckerboard="0"
     inkscape:deskcolor="#505050"
     inkscape:document-units="mm"
     showgrid="false"
     inkscape:zoom="0.16881664"
     inkscape:cx="-130.31891"
     inkscape:cy="441.30721"
     inkscape:window-width="1886"
     inkscape:window-height="1011"
     inkscape:window-x="34"
     inkscape:window-y="32"
     inkscape:window-maximized="1"
     inkscape:current-layer="layer1" /><defs
     id="defs2"><clipPath
       clipPathUnits="userSpaceOnUse"
       id="clipPath362-3"><path
         d="m 5308.24,11080.5 h -71.81 c -64.63,-292.8 -228.08,-456.1 -520.77,-522.6 v -71.8 c 292.69,-64.7 456.14,-228.1 520.77,-520.8 h 71.81 c 66.47,292.7 229.91,456.1 522.6,520.8 v 71.8 c -292.69,64.6 -457.89,229.8 -522.6,522.6 z"
         id="path360-6" /></clipPath></defs><g
     inkscape:label="Layer 1"
     inkscape:groupmode="layer"
     id="layer1"
     transform="translate(260.50989,242.65684)"><g
       id="g28"
       transform="matrix(0.03527778,0,0,-0.03527778,-892.49807,613.09371)"><g
         id="g210"><path
           d="m 33599.624,9065.0942 c -863.4,-863.6 -2013.4,-1467.2 -3194,-1776.8 117.6,-234 230.2,-472 340.2,-703.6 423.4,-892.8 823.8,-1737 1435.2,-2328 l 148.4,-144.6 c 1416,479.8 2713,1261.2 3831,2364 l -2560.8,2589"
           style="fill:#cc94a1;fill-opacity:1;fill-rule:nonzero;stroke:none;stroke-width:2"
           id="path42" /><path
           d="m 30388.824,20480.094 c 1107.8,-275 2156.8,-819.8 3012.4,-1655.2 l 2503.4,2417.6 c -1091.2,1075.8 -2329.4,1870.2 -3655.8,2375.4 l -124,-125.4 c -582,-590.8 -971,-1410.8 -1381.6,-2279.4 -113.8,-241.8 -231.6,-490 -354.4,-733"
           style="fill:#cc94a1;fill-opacity:1;fill-rule:nonzero;stroke:none;stroke-width:2"
           id="path44" /><path
           d="m 21970.824,15763.894 c 4480.8,461.8 6399.6,2149 7589.2,4016.6 160,252 304.4,516.8 442.6,786.6 576.8,1132.2 1028.4,2361.4 1848.4,3194 -798.2,267.4 -1624.6,433.8 -2470,496.4 -666.6,-1159 -1093.8,-2462.4 -1908.6,-3539.4 -24.2,-32 -48.6,-64 -74.2,-96 -811,-1034.8 -2051.8,-1945.6 -4278.8,-2417.6 -616.4,-130.4 -1309.8,-226.4 -2090,-282.6 248.2,424.6 566.6,831.4 938.8,1203.6 1168,1150 2672.2,1733.2 4194.4,1733.2 h 264.8 c 584.6,638.4 956.8,1363.6 1292,2071 -513,107.4 -1043.8,160 -1556.8,160 -2087.6,0 -4176.4,-797 -5770.2,-2389.6 -74.2,-76.6 -146,-153.4 -216.2,-232.8 -408,-450.2 -774,-938.8 -1075.8,-1465.8 -353,-619.2 -637,-1292 -813.6,-1964.8 l -372.2,-1398.2 h 1451.8 c 954.2,0 1819,43.6 2604.4,125.4"
           style="fill:#cc94a1;fill-opacity:1;fill-rule:nonzero;stroke:none;stroke-width:2"
           id="path46" /><path
           d="m 29560.024,8023.8942 c -1193.4,1872.6 -3119.8,3564.7998 -7627.6,4020.1998 -775.2,79.4 -1628.4,121.6 -2566,121.6 h -1451.8 l 372.2,-1398.2 c 176.6,-672.8 460.6,-1345.5998 813.6,-1964.7998 99.8,-175.2 207.2,-346.6 322.4,-512.8 0,-1.4 1.2,-3.8 2.4,-5.2 286.6,-420.8 614.2,-814.8 967.2,-1180.6 1593.8,-1592.6 3682.6,-2389.4 5770.2,-2389.4 513,0 1043.8,52.4 1556.8,159.8 -335.2,707.4 -707.4,1432.6 -1292,2071 h -264.8 c -1522.2,0 -3026.4,583.2 -4194.4,1733.2 -372.2,372.2 -690.6,779 -938.8,1203.6 722.6,-52.4 1370,-139.4 1950.6,-254.4 v -1.4 c 2366.4,-470.6 3647,-1428.8 4472,-2514.8 7.6,-9 14,-16.6 20.4,-25.6 816,-1077 1243.4,-2383 1912.4,-3544.4 872.4,53.6 1717.8,198.2 2528.8,438.8 -850.6,823.6 -1308.4,2067 -1891.8,3217 -143.2,284 -294.2,561.6 -461.8,826.4"
           style="fill:#cc94a1;fill-opacity:1;fill-rule:nonzero;stroke:none;stroke-width:2"
           id="path48" /><g
           id="g330"
           transform="matrix(1.5195765,0,0,1.5195765,36074.914,2231.1409)"><g
             id="g356"
             transform="matrix(3.2249549,0,0,3.2249549,-20974.793,-26310.079)"
             style="fill:#cc94a1;fill-opacity:1"><g
               id="g358"
               clip-path="url(#clipPath362-3)"
               style="fill:#cc94a1;fill-opacity:1"><path
                 d="m 5308.24,11080.5 h -71.81 c -64.63,-292.8 -228.08,-456.1 -520.77,-522.6 v -71.8 c 292.69,-64.7 456.14,-228.1 520.77,-520.8 h 71.81 c 66.47,292.7 229.91,456.1 522.6,520.8 v 71.8 c -292.69,64.6 -457.89,229.8 -522.6,522.6"
                 style="fill:#cc94a1;fill-opacity:1;fill-rule:nonzero;stroke:none"
                 id="path376" /></g></g></g></g></g></g></svg>
